<svg id="visual" viewBox="0 0 960 540" width="960" height="540" xmlns="http://www.w3.org/2000/svg" xmlns:xlink="http://www.w3.org/1999/xlink" version="1.1"><rect x="0" y="0" width="960" height="540" fill="#222"></rect><path d="M0 350L13.3 349.5C26.7 349 53.3 348 80 346.8C106.7 345.7 133.3 344.3 160 345.3C186.7 346.3 213.3 349.7 240 347.5C266.7 345.3 293.3 337.7 320 334.7C346.7 331.7 373.3 333.3 400 338C426.7 342.7 453.3 350.3 480 353.3C506.7 356.3 533.3 354.7 560 352.2C586.7 349.7 613.3 346.3 640 343C666.7 339.7 693.3 336.3 720 336C746.7 335.7 773.3 338.3 800 343.5C826.7 348.7 853.3 356.3 880 356C906.7 355.7 933.3 347.3 946.7 343.2L960 339L960 541L946.7 541C933.3 541 906.7 541 880 541C853.3 541 826.7 541 800 541C773.3 541 746.7 541 720 541C693.3 541 666.7 541 640 541C613.3 541 586.7 541 560 541C533.3 541 506.7 541 480 541C453.3 541 426.7 541 400 541C373.3 541 346.7 541 320 541C293.3 541 266.7 541 240 541C213.3 541 186.7 541 160 541C133.3 541 106.7 541 80 541C53.3 541 26.7 541 13.3 541L0 541Z" fill="#f77a36"></path><path d="M0 396L13.3 394.8C26.7 393.7 53.3 391.3 80 390.2C106.7 389 133.3 389 160 387.2C186.7 385.3 213.3 381.7 240 377.8C266.7 374 293.3 370 320 371.2C346.7 372.3 373.3 378.7 400 385.3C426.7 392 453.3 399 480 395.7C506.7 392.3 533.3 378.7 560 372.7C586.7 366.7 613.3 368.3 640 369.7C666.7 371 693.3 372 720 376.2C746.7 380.3 773.3 387.7 800 392C826.7 396.3 853.3 397.7 880 398.7C906.7 399.7 933.3 400.3 946.7 400.7L960 401L960 541L946.7 541C933.3 541 906.7 541 880 541C853.3 541 826.7 541 800 541C773.3 541 746.7 541 720 541C693.3 541 666.7 541 640 541C613.3 541 586.7 541 560 541C533.3 541 506.7 541 480 541C453.3 541 426.7 541 400 541C373.3 541 346.7 541 320 541C293.3 541 266.7 541 240 541C213.3 541 186.7 541 160 541C133.3 541 106.7 541 80 541C53.3 541 26.7 541 13.3 541L0 541Z" fill="#e6605e"></path><path d="M0 429L13.3 425.8C26.7 422.7 53.3 416.3 80 413.5C106.7 410.7 133.3 411.3 160 415C186.7 418.7 213.3 425.3 240 424C266.7 422.7 293.3 413.3 320 413C346.7 412.7 373.3 421.3 400 426.3C426.7 431.3 453.3 432.7 480 430.2C506.7 427.7 533.3 421.3 560 420.7C586.7 420 613.3 425 640 426C666.7 427 693.3 424 720 420.7C746.7 417.3 773.3 413.7 800 416.5C826.7 419.3 853.3 428.7 880 433.2C906.7 437.7 933.3 437.3 946.7 437.2L960 437L960 541L946.7 541C933.3 541 906.7 541 880 541C853.3 541 826.7 541 800 541C773.3 541 746.7 541 720 541C693.3 541 666.7 541 640 541C613.3 541 586.7 541 560 541C533.3 541 506.7 541 480 541C453.3 541 426.7 541 400 541C373.3 541 346.7 541 320 541C293.3 541 266.7 541 240 541C213.3 541 186.7 541 160 541C133.3 541 106.7 541 80 541C53.3 541 26.7 541 13.3 541L0 541Z" fill="#c05777"></path><path d="M0 448L13.3 451C26.7 454 53.3 460 80 461.2C106.7 462.3 133.3 458.7 160 459.2C186.7 459.7 213.3 464.3 240 463C266.7 461.7 293.3 454.3 320 450.3C346.7 446.3 373.3 445.7 400 448.2C426.7 450.7 453.3 456.3 480 459.3C506.7 462.3 533.3 462.7 560 460C586.7 457.3 613.3 451.7 640 450.5C666.7 449.3 693.3 452.7 720 452.7C746.7 452.7 773.3 449.3 800 447.8C826.7 446.3 853.3 446.7 880 451.2C906.7 455.7 933.3 464.3 946.7 468.7L960 473L960 541L946.7 541C933.3 541 906.7 541 880 541C853.3 541 826.7 541 800 541C773.3 541 746.7 541 720 541C693.3 541 666.7 541 640 541C613.3 541 586.7 541 560 541C533.3 541 506.7 541 480 541C453.3 541 426.7 541 400 541C373.3 541 346.7 541 320 541C293.3 541 266.7 541 240 541C213.3 541 186.7 541 160 541C133.3 541 106.7 541 80 541C53.3 541 26.7 541 13.3 541L0 541Z" fill="#8f557c"></path><path d="M0 483L13.3 484.5C26.7 486 53.3 489 80 489C106.7 489 133.3 486 160 488.3C186.7 490.7 213.3 498.3 240 501.3C266.7 504.3 293.3 502.7 320 499.8C346.7 497 373.3 493 400 492.7C426.7 492.3 453.3 495.7 480 496C506.7 496.3 533.3 493.7 560 494.3C586.7 495 613.3 499 640 500.8C666.7 502.7 693.3 502.3 720 501.3C746.7 500.3 773.3 498.7 800 499.5C826.7 500.3 853.3 503.7 880 503.2C906.7 502.7 933.3 498.3 946.7 496.2L960 494L960 541L946.7 541C933.3 541 906.7 541 880 541C853.3 541 826.7 541 800 541C773.3 541 746.7 541 720 541C693.3 541 666.7 541 640 541C613.3 541 586.7 541 560 541C533.3 541 506.7 541 480 541C453.3 541 426.7 541 400 541C373.3 541 346.7 541 320 541C293.3 541 266.7 541 240 541C213.3 541 186.7 541 160 541C133.3 541 106.7 541 80 541C53.3 541 26.7 541 13.3 541L0 541Z" fill="#62516d"></path></svg>